<?xml version="1.0" standalone="no"?>
<!DOCTYPE svg PUBLIC "-//W3C//DTD SVG 20010904//EN"
 "http://www.w3.org/TR/2001/REC-SVG-20010904/DTD/svg10.dtd">
<svg version="1.0" xmlns="http://www.w3.org/2000/svg"
 width="154.000000pt" height="154.000000pt" viewBox="0 0 154.000000 154.000000"
 preserveAspectRatio="xMidYMid meet">
<metadata>
Created by potrace 1.11, written by Peter Selinger 2001-2013
</metadata>
<g transform="translate(0.000000,154.000000) scale(0.100000,-0.100000)"
fill="#000000" stroke="none">
<path d="M720 1530 c-45 -11 -48 -35 -48 -320 0 -146 3 -271 6 -277 24 -36
125 -45 163 -14 23 18 23 18 23 295 1 253 -1 279 -17 297 -10 10 -23 20 -30
20 -50 5 -75 5 -97 -1z"/>
<path d="M394 1288 c-70 -46 -160 -133 -206 -201 -274 -401 -63 -947 414
-1071 74 -19 230 -20 319 -2 142 30 296 124 387 237 40 49 77 113 123 211 23
48 41 186 36 272 -7 108 -9 119 -42 207 -30 78 -83 162 -145 232 -50 56 -175
147 -202 147 -20 0 -20 -3 -21 -116 l0 -70 53 -50 c104 -96 168 -225 177 -354
7 -99 -10 -174 -60 -272 -159 -310 -574 -375 -824 -128 -98 96 -155 228 -156
364 -1 137 54 261 164 375 l69 71 0 84 c0 67 -3 85 -16 90 -9 3 -17 6 -18 6
-1 0 -25 -14 -52 -32z"/>
</g>
</svg>
